<mxfile host="app.diagrams.net" modified="2021-12-05T10:36:29.197Z" agent="5.0 (Windows NT 10.0; Win64; x64) AppleWebKit/537.36 (KHTML, like Gecko) Chrome/96.0.4664.55 Safari/537.36 Edg/96.0.1054.43" etag="l-pt0zZaAX74S_vGDF5C" version="15.9.1" type="github">
  <diagram id="R2lEEEUBdFMjLlhIrx00" name="Page-1">
    <mxGraphModel dx="1117" dy="620" grid="1" gridSize="10" guides="1" tooltips="1" connect="1" arrows="1" fold="1" page="1" pageScale="1" pageWidth="1654" pageHeight="1169" math="0" shadow="0" extFonts="Permanent Marker^https://fonts.googleapis.com/css?family=Permanent+Marker">
      <root>
        <mxCell id="0" />
        <mxCell id="1" parent="0" />
        <mxCell id="EtfINMgTyZkkNjxXo15q-29" style="edgeStyle=orthogonalEdgeStyle;rounded=0;orthogonalLoop=1;jettySize=auto;html=1;exitX=0.75;exitY=0;exitDx=0;exitDy=0;endArrow=none;endFill=0;" edge="1" parent="1" source="EtfINMgTyZkkNjxXo15q-1" target="EtfINMgTyZkkNjxXo15q-4">
          <mxGeometry relative="1" as="geometry" />
        </mxCell>
        <mxCell id="EtfINMgTyZkkNjxXo15q-30" style="edgeStyle=orthogonalEdgeStyle;rounded=0;orthogonalLoop=1;jettySize=auto;html=1;exitX=0.25;exitY=0;exitDx=0;exitDy=0;entryX=0.5;entryY=1;entryDx=0;entryDy=0;endArrow=none;endFill=0;" edge="1" parent="1" source="EtfINMgTyZkkNjxXo15q-1" target="EtfINMgTyZkkNjxXo15q-3">
          <mxGeometry relative="1" as="geometry" />
        </mxCell>
        <mxCell id="EtfINMgTyZkkNjxXo15q-31" style="edgeStyle=orthogonalEdgeStyle;rounded=0;orthogonalLoop=1;jettySize=auto;html=1;exitX=0.5;exitY=1;exitDx=0;exitDy=0;endArrow=none;endFill=0;" edge="1" parent="1" source="EtfINMgTyZkkNjxXo15q-1" target="EtfINMgTyZkkNjxXo15q-7">
          <mxGeometry relative="1" as="geometry" />
        </mxCell>
        <mxCell id="EtfINMgTyZkkNjxXo15q-1" value="Vehicle" style="whiteSpace=wrap;html=1;align=center;" vertex="1" parent="1">
          <mxGeometry x="110" y="110" width="100" height="40" as="geometry" />
        </mxCell>
        <mxCell id="EtfINMgTyZkkNjxXo15q-19" style="edgeStyle=orthogonalEdgeStyle;rounded=0;orthogonalLoop=1;jettySize=auto;html=1;exitX=0.75;exitY=0;exitDx=0;exitDy=0;endArrow=none;endFill=0;" edge="1" parent="1" source="EtfINMgTyZkkNjxXo15q-2" target="EtfINMgTyZkkNjxXo15q-15">
          <mxGeometry relative="1" as="geometry" />
        </mxCell>
        <mxCell id="EtfINMgTyZkkNjxXo15q-22" style="edgeStyle=orthogonalEdgeStyle;rounded=0;orthogonalLoop=1;jettySize=auto;html=1;exitX=1;exitY=0.5;exitDx=0;exitDy=0;endArrow=none;endFill=0;" edge="1" parent="1" source="EtfINMgTyZkkNjxXo15q-2" target="EtfINMgTyZkkNjxXo15q-17">
          <mxGeometry relative="1" as="geometry" />
        </mxCell>
        <mxCell id="EtfINMgTyZkkNjxXo15q-23" style="edgeStyle=orthogonalEdgeStyle;rounded=0;orthogonalLoop=1;jettySize=auto;html=1;exitX=0.75;exitY=1;exitDx=0;exitDy=0;endArrow=none;endFill=0;" edge="1" parent="1" source="EtfINMgTyZkkNjxXo15q-2" target="EtfINMgTyZkkNjxXo15q-18">
          <mxGeometry relative="1" as="geometry" />
        </mxCell>
        <mxCell id="EtfINMgTyZkkNjxXo15q-24" style="edgeStyle=orthogonalEdgeStyle;rounded=0;orthogonalLoop=1;jettySize=auto;html=1;exitX=1;exitY=0.25;exitDx=0;exitDy=0;entryX=0;entryY=0.5;entryDx=0;entryDy=0;endArrow=none;endFill=0;" edge="1" parent="1" source="EtfINMgTyZkkNjxXo15q-2" target="EtfINMgTyZkkNjxXo15q-16">
          <mxGeometry relative="1" as="geometry" />
        </mxCell>
        <mxCell id="EtfINMgTyZkkNjxXo15q-2" value="Service_Dates" style="whiteSpace=wrap;html=1;align=center;" vertex="1" parent="1">
          <mxGeometry x="400" y="110" width="100" height="40" as="geometry" />
        </mxCell>
        <mxCell id="EtfINMgTyZkkNjxXo15q-3" value="name" style="ellipse;whiteSpace=wrap;html=1;align=center;" vertex="1" parent="1">
          <mxGeometry x="50" y="40" width="100" height="40" as="geometry" />
        </mxCell>
        <mxCell id="EtfINMgTyZkkNjxXo15q-4" value="id" style="ellipse;whiteSpace=wrap;html=1;align=center;fontStyle=4;" vertex="1" parent="1">
          <mxGeometry x="170" y="40" width="100" height="40" as="geometry" />
        </mxCell>
        <mxCell id="EtfINMgTyZkkNjxXo15q-25" style="edgeStyle=orthogonalEdgeStyle;rounded=0;orthogonalLoop=1;jettySize=auto;html=1;exitX=1;exitY=0.5;exitDx=0;exitDy=0;entryX=0;entryY=0.5;entryDx=0;entryDy=0;endArrow=none;endFill=0;" edge="1" parent="1" source="EtfINMgTyZkkNjxXo15q-6" target="EtfINMgTyZkkNjxXo15q-2">
          <mxGeometry relative="1" as="geometry" />
        </mxCell>
        <mxCell id="EtfINMgTyZkkNjxXo15q-27" style="edgeStyle=orthogonalEdgeStyle;rounded=0;orthogonalLoop=1;jettySize=auto;html=1;exitX=0;exitY=0.5;exitDx=0;exitDy=0;entryX=1;entryY=0.5;entryDx=0;entryDy=0;endArrow=none;endFill=0;" edge="1" parent="1" source="EtfINMgTyZkkNjxXo15q-6" target="EtfINMgTyZkkNjxXo15q-1">
          <mxGeometry relative="1" as="geometry" />
        </mxCell>
        <mxCell id="EtfINMgTyZkkNjxXo15q-6" value="has" style="shape=rhombus;perimeter=rhombusPerimeter;whiteSpace=wrap;html=1;align=center;" vertex="1" parent="1">
          <mxGeometry x="260" y="100" width="80" height="60" as="geometry" />
        </mxCell>
        <mxCell id="EtfINMgTyZkkNjxXo15q-32" style="edgeStyle=orthogonalEdgeStyle;rounded=0;orthogonalLoop=1;jettySize=auto;html=1;exitX=0.5;exitY=1;exitDx=0;exitDy=0;entryX=0.5;entryY=0;entryDx=0;entryDy=0;endArrow=none;endFill=0;" edge="1" parent="1" source="EtfINMgTyZkkNjxXo15q-7" target="EtfINMgTyZkkNjxXo15q-8">
          <mxGeometry relative="1" as="geometry" />
        </mxCell>
        <mxCell id="EtfINMgTyZkkNjxXo15q-7" value="has" style="shape=rhombus;perimeter=rhombusPerimeter;whiteSpace=wrap;html=1;align=center;" vertex="1" parent="1">
          <mxGeometry x="120" y="180" width="80" height="60" as="geometry" />
        </mxCell>
        <mxCell id="EtfINMgTyZkkNjxXo15q-33" style="edgeStyle=orthogonalEdgeStyle;rounded=0;orthogonalLoop=1;jettySize=auto;html=1;exitX=0.25;exitY=1;exitDx=0;exitDy=0;endArrow=none;endFill=0;" edge="1" parent="1" source="EtfINMgTyZkkNjxXo15q-8" target="EtfINMgTyZkkNjxXo15q-10">
          <mxGeometry relative="1" as="geometry" />
        </mxCell>
        <mxCell id="EtfINMgTyZkkNjxXo15q-34" style="edgeStyle=orthogonalEdgeStyle;rounded=0;orthogonalLoop=1;jettySize=auto;html=1;exitX=0.75;exitY=1;exitDx=0;exitDy=0;entryX=0.387;entryY=-0.071;entryDx=0;entryDy=0;entryPerimeter=0;endArrow=none;endFill=0;" edge="1" parent="1" source="EtfINMgTyZkkNjxXo15q-8" target="EtfINMgTyZkkNjxXo15q-9">
          <mxGeometry relative="1" as="geometry" />
        </mxCell>
        <mxCell id="EtfINMgTyZkkNjxXo15q-8" value="Type" style="whiteSpace=wrap;html=1;align=center;" vertex="1" parent="1">
          <mxGeometry x="110" y="280" width="100" height="40" as="geometry" />
        </mxCell>
        <mxCell id="EtfINMgTyZkkNjxXo15q-36" style="edgeStyle=orthogonalEdgeStyle;rounded=0;orthogonalLoop=1;jettySize=auto;html=1;exitX=0.5;exitY=1;exitDx=0;exitDy=0;entryX=0.401;entryY=0.25;entryDx=0;entryDy=0;entryPerimeter=0;endArrow=none;endFill=0;" edge="1" parent="1" source="EtfINMgTyZkkNjxXo15q-9" target="EtfINMgTyZkkNjxXo15q-13">
          <mxGeometry relative="1" as="geometry" />
        </mxCell>
        <mxCell id="EtfINMgTyZkkNjxXo15q-9" value="air" style="rounded=1;arcSize=10;whiteSpace=wrap;html=1;align=center;" vertex="1" parent="1">
          <mxGeometry x="190" y="360" width="100" height="40" as="geometry" />
        </mxCell>
        <mxCell id="EtfINMgTyZkkNjxXo15q-35" style="edgeStyle=orthogonalEdgeStyle;rounded=0;orthogonalLoop=1;jettySize=auto;html=1;exitX=0.5;exitY=1;exitDx=0;exitDy=0;endArrow=none;endFill=0;" edge="1" parent="1" source="EtfINMgTyZkkNjxXo15q-10" target="EtfINMgTyZkkNjxXo15q-14">
          <mxGeometry relative="1" as="geometry" />
        </mxCell>
        <mxCell id="EtfINMgTyZkkNjxXo15q-10" value="land" style="rounded=1;arcSize=10;whiteSpace=wrap;html=1;align=center;" vertex="1" parent="1">
          <mxGeometry x="40" y="360" width="100" height="40" as="geometry" />
        </mxCell>
        <mxCell id="EtfINMgTyZkkNjxXo15q-13" value="wheel type" style="ellipse;whiteSpace=wrap;html=1;align=center;" vertex="1" parent="1">
          <mxGeometry x="200" y="430" width="100" height="40" as="geometry" />
        </mxCell>
        <mxCell id="EtfINMgTyZkkNjxXo15q-14" value="engineer type" style="ellipse;whiteSpace=wrap;html=1;align=center;" vertex="1" parent="1">
          <mxGeometry x="40" y="430" width="100" height="40" as="geometry" />
        </mxCell>
        <mxCell id="EtfINMgTyZkkNjxXo15q-15" value="first_launch" style="ellipse;whiteSpace=wrap;html=1;align=center;" vertex="1" parent="1">
          <mxGeometry x="460" y="40" width="100" height="40" as="geometry" />
        </mxCell>
        <mxCell id="EtfINMgTyZkkNjxXo15q-16" value="last_launch" style="ellipse;whiteSpace=wrap;html=1;align=center;" vertex="1" parent="1">
          <mxGeometry x="610" y="70" width="100" height="40" as="geometry" />
        </mxCell>
        <mxCell id="EtfINMgTyZkkNjxXo15q-17" value="no_missions" style="ellipse;whiteSpace=wrap;html=1;align=center;" vertex="1" parent="1">
          <mxGeometry x="610" y="130" width="100" height="40" as="geometry" />
        </mxCell>
        <mxCell id="EtfINMgTyZkkNjxXo15q-18" value="active_status" style="ellipse;whiteSpace=wrap;html=1;align=center;" vertex="1" parent="1">
          <mxGeometry x="450" y="190" width="100" height="40" as="geometry" />
        </mxCell>
      </root>
    </mxGraphModel>
  </diagram>
</mxfile>
